<svg xmlns="http://www.w3.org/2000/svg" width="146" height="146" viewBox="0 0 146 146" fill="none"><path d="M97.7797 63.5032C102.306 58.9338 103.438 52.6422 100.304 49.478C97.1697 46.3138 90.9383 47.4569 86.4125 52.0264C82.1316 56.3486 80.8892 62.21 83.4194 65.5096L77.512 71.4739L76.3165 70.2668L48.0842 98.7713L51.4808 102.201L79.7132 73.696L78.5178 72.489L84.4251 66.5247C87.6934 69.0795 93.4988 67.8254 97.7797 63.5032ZM77.6176 73.7816L51.5657 100.085L50.1804 98.686L76.2323 72.3829L77.6176 73.7816ZM84.9784 64.951C82.3991 62.3468 83.4938 57.0043 87.4185 53.0418C91.3431 49.0793 96.6346 47.9741 99.2139 50.5782C101.793 53.1825 100.699 58.5252 96.7741 62.4877C92.8494 66.4501 87.5578 67.5553 84.9784 64.951Z" fill="white"></path><path d="M60.0731 52.0219C55.5536 47.4461 49.3307 46.3015 46.2011 49.4701C43.0714 52.6386 44.2021 58.9387 48.7217 63.5145C52.9966 67.8426 58.794 69.0987 62.0576 66.5405L67.9567 72.513L66.7628 73.7218L94.9559 102.265L98.3478 98.8313L70.1545 70.2876L68.9608 71.4962L63.0616 65.5237C65.5885 62.2194 64.3481 56.35 60.0731 52.0219ZM70.2392 72.4063L96.2549 98.7455L94.8715 100.146L68.8558 73.8069L70.2392 72.4063ZM61.5051 64.9643C58.9293 67.5721 53.6452 66.4653 49.726 62.4974C45.8068 58.5294 44.7136 53.1796 47.2893 50.5719C49.8652 47.964 55.1494 49.0706 59.0686 53.0386C62.9878 57.0065 64.0809 62.3565 61.5051 64.9643Z" fill="white"></path></svg>